<svg width="120" height="135" viewBox="0 0 120 135" fill="none" xmlns="http://www.w3.org/2000/svg">
<g filter="url(#filter0_d)">
<path d="M70.3453 28.4406C67.0148 34.818 63.7687 41.0805 63.7687 45.0461C61.7836 46.6445 58.5586 46.7266 56.7094 45.5055C56.7119 45.0773 56.7432 44.6498 56.8031 44.2258L57.0609 42.8641C59.1797 33.85 70.2023 18.2711 70.35 10.1242C70.3566 9.18536 70.7326 8.28686 71.3967 7.62319C72.0608 6.95952 72.9596 6.58408 73.8984 6.57813C74.3591 6.57684 74.8153 6.66808 75.2401 6.84644C75.6648 7.02479 76.0494 7.28662 76.3711 7.61641C77.0251 8.29192 77.4072 9.18473 77.4445 10.1242C77.6437 14.5211 73.9477 21.5453 70.3477 28.4359C70.3453 28.4383 70.3453 28.4383 70.3453 28.4406Z" fill="#E29454"/>
<path d="M59.6363 45.5055C59.6388 45.0773 59.6701 44.6498 59.73 44.2258L59.9878 42.8641C62.1068 33.85 73.1295 18.2711 73.2769 10.1242C73.2855 9.44594 73.4852 8.78383 73.853 8.21389C74.2209 7.64395 74.742 7.18927 75.3565 6.90203C74.9002 6.68829 74.4023 6.5777 73.8984 6.57812C72.9596 6.58408 72.0608 6.95952 71.3967 7.62319C70.7326 8.28686 70.3566 9.18536 70.35 10.1242C70.2023 18.2711 59.1797 33.85 57.0609 42.8641L56.8031 44.2258C56.7432 44.6498 56.7119 45.0773 56.7094 45.5055C57.8995 46.2913 59.6585 46.5339 61.2912 46.1835C60.7033 46.0587 60.1427 45.8291 59.6363 45.5055Z" fill="#BF7A47"/>
<path d="M95.4117 22.7172C95.4917 22.86 95.5392 23.0186 95.5509 23.1819C95.5627 23.3451 95.5384 23.5089 95.4797 23.6617L94.2938 26.7531C93.2221 29.5517 91.5269 32.0694 89.3367 34.1148C88.3789 33.7237 87.3982 33.3911 86.4 33.1187C74.8477 29.9523 68.4492 40.3633 64.1719 44.6852C64.0448 44.8134 63.9102 44.9339 63.7687 45.0461C63.7687 41.0805 67.0148 34.818 70.3453 28.4406C70.3453 28.4383 70.3453 28.4383 70.3477 28.4359C75.0328 21.393 83.3883 19.6211 91.3266 21.4L94.6383 22.1406C94.8006 22.1767 94.9534 22.2468 95.0867 22.3461C95.22 22.4455 95.3308 22.572 95.4117 22.7172Z" fill="#8DC63F"/>
<path d="M94.6383 22.1406L94.1433 22.03C93.1444 23.2663 92.0979 24.5249 91.0453 25.7889C91.0453 25.791 91.0453 25.791 91.042 25.7929C85.2844 31.3827 77.3025 31.6349 70.1953 28.7277C66.918 35.0055 63.7687 41.14 63.7687 45.0461C63.9102 44.9339 64.0448 44.8134 64.1719 44.6852C68.4492 40.3633 74.8477 29.9523 86.4 33.1187C87.3982 33.3911 88.3789 33.7237 89.3367 34.1148C91.5269 32.0694 93.2221 29.5517 94.2938 26.7531L95.4797 23.6617C95.5384 23.5089 95.5627 23.3451 95.5509 23.1819C95.5392 23.0186 95.4917 22.86 95.4117 22.7172C95.3308 22.572 95.22 22.4455 95.0867 22.3461C94.9534 22.2468 94.8006 22.1767 94.6383 22.1406Z" fill="#739937"/>
<path d="M56.8031 44.2258C56.7432 44.6498 56.7119 45.0773 56.7094 45.5055C56.3686 45.2874 56.07 45.0095 55.8281 44.6852C52.6148 40.2812 46.0641 31.2133 35.7656 32.6664C33.1664 28.007 31.425 20.8469 32.0883 15.2078L32.5875 10.9422C32.6121 10.7322 32.6816 10.53 32.7914 10.3493C32.9012 10.1686 33.0486 10.0137 33.2236 9.89511C33.3987 9.77655 33.5973 9.69712 33.8058 9.66224C34.0143 9.62736 34.2279 9.63784 34.432 9.69297L38.5805 10.8062C44.6429 12.4359 49.9169 16.1919 53.4393 21.3882C56.9618 26.5845 58.4976 32.8744 57.7664 39.1094L57.0609 42.8641C56.9484 43.3375 56.8625 43.7914 56.8031 44.2258Z" fill="#8DC63F"/>
<path d="M39.6462 11.1177C40.4559 11.4627 41.299 11.7812 42.1683 12.0552C41.3442 11.6998 40.5024 11.3869 39.6462 11.1177Z" fill="#6E891A"/>
<path d="M32.9766 13.2236L32.5636 11.1484L32.0883 15.2078C31.425 20.8469 33.1664 28.007 35.7656 32.6664C46.0641 31.2133 52.6148 40.2812 55.8281 44.6852C56.07 45.0095 56.3686 45.2874 56.7094 45.5055C56.7119 45.0773 56.7432 44.6498 56.8031 44.2258C56.8617 43.7922 56.9477 43.3383 57.0609 42.8641L57.7664 39.1094C58.0248 36.914 58.0039 34.6948 57.7043 32.5047C52.0526 32.3944 46.5887 30.4562 42.1309 26.9803C37.6731 23.5044 34.4613 18.6779 32.9766 13.2236Z" fill="#739937"/>
<path d="M43.9301 26.1508C43.7058 26.1511 43.4847 26.0978 43.2853 25.9951C43.0859 25.8925 42.914 25.7436 42.784 25.5609L32.1619 10.6616C32.0547 10.5112 31.9782 10.3411 31.9367 10.1611C31.8952 9.98107 31.8896 9.79465 31.9202 9.61246C31.9508 9.43028 32.0169 9.2559 32.1149 9.09929C32.2129 8.94267 32.3407 8.80689 32.4912 8.69969C32.6416 8.59248 32.8117 8.51596 32.9917 8.4745C33.1717 8.43303 33.3582 8.42742 33.5403 8.458C33.7225 8.48858 33.8969 8.55474 34.0535 8.65271C34.2101 8.75068 34.3459 8.87854 34.4531 9.02898L45.0752 23.9282C45.2251 24.1384 45.3142 24.3859 45.3328 24.6434C45.3514 24.9009 45.2987 25.1585 45.1805 25.3881C45.0624 25.6177 44.8833 25.8103 44.6629 25.9448C44.4426 26.0793 44.1894 26.1506 43.9313 26.1508H43.9301Z" fill="#6E891A"/>
<path d="M89.3367 33.6461C103.327 39.3531 108.518 56.0641 108.518 68.5187C108.518 90.7 86.7398 120.953 72.7453 120.953C69.2766 120.953 66.0023 119.043 63.6281 117.606C61.5469 116.348 57.6937 116.795 56.3719 117.606C54.007 119.057 50.632 120.953 47.2547 120.953C30.532 120.953 11.6156 91.0422 11.482 68.5187C11.4187 57.6719 17.393 37.0914 33.6 32.65C34.3116 32.4537 35.0349 32.3026 35.7656 32.1976C46.0641 30.7445 52.6148 39.8125 55.8281 44.2164C56.07 44.5407 56.3686 44.8186 56.7094 45.0367C58.5586 46.2578 61.7836 46.1758 63.7687 44.5773C63.9102 44.4652 64.0448 44.3446 64.1719 44.2164C68.4492 39.8945 74.8477 29.4836 86.4 32.65C87.3982 32.9223 88.3789 33.2549 89.3367 33.6461Z" fill="#FC324B"/>
<path d="M33.8259 78.7778C28.2284 68.6221 23.3323 46.2414 36.2869 33.7952C36.855 33.2474 37.4572 32.7361 38.0899 32.2645C38.1893 32.1909 38.2891 32.1203 38.3892 32.0495C37.5116 32.0247 36.6335 32.0742 35.7642 32.1977C35.0335 32.3026 34.3102 32.4537 33.5986 32.65C17.393 37.0914 11.4187 57.6719 11.482 68.5187C11.6156 91.0422 30.532 120.953 47.2547 120.953C50.632 120.953 54.007 119.057 56.3719 117.606C57.6937 116.795 61.5469 116.348 63.6281 117.606C66.0023 119.043 69.2766 120.953 72.7453 120.953C77.6248 120.953 83.4504 117.273 88.9692 111.541C72.059 114.562 44.2819 97.7444 33.8259 78.7778Z" fill="#E01B33"/>
<g opacity="0.6">
<path opacity="0.6" d="M24.1484 75.0557C23.8205 75.0553 23.503 74.9402 23.2509 74.7305C22.9989 74.5208 22.828 74.2296 22.7679 73.9073C19.5141 56.5513 27.0166 48.7877 27.3382 48.4656C27.6015 48.204 27.9577 48.0571 28.3289 48.057C28.7001 48.0569 29.0563 48.2035 29.3198 48.465C29.5833 48.7265 29.7328 49.0815 29.7355 49.4527C29.7383 49.8239 29.5942 50.1812 29.3346 50.4466C29.2924 50.4904 27.6148 52.2545 26.3166 55.9016C25.1027 59.312 23.9812 65.1142 25.5326 73.3891C25.5705 73.5922 25.5632 73.8012 25.5112 74.0012C25.4592 74.2012 25.3638 74.3873 25.2318 74.5463C25.0999 74.7052 24.9345 74.8332 24.7475 74.9211C24.5605 75.009 24.3564 75.0546 24.1498 75.0548L24.1484 75.0557Z" fill="#E9E9E9"/>
</g>
<g opacity="0.6">
<path opacity="0.6" d="M25.4587 81.7656C25.138 81.7653 24.8271 81.6553 24.5774 81.454C24.3278 81.2527 24.1545 80.972 24.0862 80.6587L23.4651 77.8087C23.4237 77.6275 23.4186 77.4399 23.4502 77.2567C23.4817 77.0735 23.5492 76.8984 23.6488 76.7415C23.7485 76.5846 23.8782 76.449 24.0306 76.3425C24.1829 76.2361 24.3549 76.1609 24.5365 76.1213C24.7181 76.0817 24.9057 76.0785 25.0886 76.1119C25.2714 76.1453 25.4458 76.2146 25.6017 76.3158C25.7576 76.417 25.8919 76.5481 25.9968 76.7015C26.1017 76.8549 26.1752 77.0276 26.213 77.2096L26.8341 80.0596C26.8786 80.265 26.8767 80.4778 26.8283 80.6823C26.7799 80.8868 26.6863 81.0779 26.5544 81.2415C26.4225 81.4052 26.2556 81.5372 26.066 81.6279C25.8764 81.7185 25.6689 81.7656 25.4587 81.7656Z" fill="#E9E9E9"/>
</g>
</g>
<defs>
<filter id="filter0_d" x="-10" y="-2" width="140" height="140" filterUnits="userSpaceOnUse" color-interpolation-filters="sRGB">
<feFlood flood-opacity="0" result="BackgroundImageFix"/>
<feColorMatrix in="SourceAlpha" type="matrix" values="0 0 0 0 0 0 0 0 0 0 0 0 0 0 0 0 0 0 127 0"/>
<feOffset dy="4"/>
<feGaussianBlur stdDeviation="5"/>
<feColorMatrix type="matrix" values="0 0 0 0 0 0 0 0 0 0 0 0 0 0 0 0 0 0 0.5 0"/>
<feBlend mode="normal" in2="BackgroundImageFix" result="effect1_dropShadow"/>
<feBlend mode="normal" in="SourceGraphic" in2="effect1_dropShadow" result="shape"/>
</filter>
</defs>
</svg>
